#!OML:ASF F:\VICON\USERDATA\INSTALL\rory3\rory3.ASF
:FULLY-SPECIFIED
:DEGREES
1990
root 0.153552 15.4562 -2.46976 -0.0625055 -0.227522 -3.71232
lowerback 27.765 0.864009 -5.15109
upperback 10.3386 -0.546721 -4.9788
thorax -3.76183 -0.274764 -2.35308
lowerneck -5.69725 -10.4167 -18.7298
upperneck 3.5802 -12.7716 7.56533
head 3.64836 -6.37853 4.43864
rclavicle 1.90833e-014 7.63333e-014
rhumerus 35.6392 6.26512 -57.7356
rradius 134.101
rwrist -10.1862
rhand 20.4973 8.81165
rfingers 7.12502
rthumb 44.9981 -14.6887
lclavicle 1.90833e-014 7.63333e-014
lhumerus 21.2169 -19.9273 63.8041
lradius 114.276
lwrist 1.06436
lhand -10.5693 27.3668
lfingers 7.12502
lthumb 15.4354 56.7705
rfemur -23.8243 9.58724 19.5261
rtibia 39.5817
rfoot -11.6576 -10.9435
rtoes -13.8532
lfemur -24.7084 -8.06442 -10.6849
ltibia 40.2203
lfoot -11.7353 5.23535
ltoes -17.0974
1991
root 0.147707 15.4532 -2.47371 -0.0834186 -0.0586044 -3.68341
lowerback 27.7727 0.790803 -5.18443
upperback 10.3333 -0.649969 -5.02165
thorax -3.77196 -0.324007 -2.35049
lowerneck -5.35499 -10.4423 -18.8463
upperneck 3.51607 -12.8513 7.45867
head 3.58406 -6.42642 4.43261
rclavicle -4.92986e-014 1.27222e-014
rhumerus 35.7016 5.66738 -58.1903
rradius 133.956
rwrist -9.41941
rhand 19.5462 9.10761
rfingers 7.12502
rthumb 44.1121 -14.7334
lclavicle -4.92986e-014 1.27222e-014
lhumerus 21.0513 -19.9033 63.7532
lradius 114.352
lwrist 1.06424
lhand -10.5849 27.3905
lfingers 7.12502
lthumb 15.4203 56.7954
rfemur -23.7942 9.40282 19.5169
rtibia 39.6224
rfoot -11.722 -10.8924
rtoes -13.4587
lfemur -24.7983 -8.20231 -10.7061
ltibia 40.311
lfoot -11.7446 5.25318
ltoes -17.2332
1992
root 0.139916 15.4473 -2.47928 -0.118265 0.0560358 -3.88044
lowerback 27.7968 0.687958 -5.10532
upperback 10.3839 -0.754202 -4.96789
thorax -3.72888 -0.375187 -2.30469
lowerneck -5.33219 -10.5024 -19.0969
upperneck 3.5972 -12.9128 7.44433
head 3.62771 -6.46246 4.45566
rclavicle 4.77083e-015 3.18055e-014
rhumerus 36.2161 5.06551 -58.7194
rradius 133.82
rwrist -9.01303
rhand 18.7998 9.4843
rfingers 7.12502
rthumb 43.4154 -14.6132
lclavicle 4.77083e-015 3.18055e-014
lhumerus 20.8917 -19.6724 63.7791
lradius 114.466
lwrist 1.02701
lhand -10.4161 27.3756
lfingers 7.12502
lthumb 15.5829 56.7679
rfemur -23.7791 9.29254 19.7729
rtibia 39.7089
rfoot -11.7632 -10.8865
rtoes -12.9052
lfemur -24.8872 -8.25779 -10.4505
ltibia 40.4042
lfoot -11.7351 5.2123
ltoes -16.9849
1993
root 0.132306 15.4433 -2.48709 -0.199661 0.171761 -4.07418
lowerback 27.8844 0.606878 -5.00864
upperback 10.4522 -0.830501 -4.9162
thorax -3.69578 -0.412166 -2.28036
lowerneck -5.27336 -10.6006 -19.1982
upperneck 3.62455 -13.0344 7.29831
head 3.63808 -6.52889 4.41439
rclavicle -1.59028e-015 -4.77083e-015
rhumerus 36.8369 4.8847 -59.1332
rradius 133.71
rwrist -8.04607
rhand 17.3686 9.50403
rfingers 7.12502
rthumb 42.0763 -15.0604
lclavicle -1.59028e-015 -4.77083e-015
lhumerus 20.802 -19.4947 63.7771
lradius 114.536
lwrist 0.973956
lhand -10.3159 27.378
lfingers 7.12502
lthumb 15.6794 56.7627
rfemur -23.7573 9.23354 20.0234
rtibia 39.8096
rfoot -11.7558 -10.9515
rtoes -12.9212
lfemur -24.9354 -8.32079 -10.2091
ltibia 40.4947
lfoot -11.6777 5.1586
ltoes -16.9542
1994
root 0.124309 15.4384 -2.49496 -0.259711 0.270021 -3.97515
lowerback 27.9339 0.591969 -5.19318
upperback 10.5168 -0.895958 -4.93957
thorax -3.64253 -0.447894 -2.18169
lowerneck -5.1972 -10.714 -19.3277
upperneck 3.71488 -13.1836 7.22783
head 3.67589 -6.60959 4.39656
rclavicle -2.06736e-014 -2.22639e-014
rhumerus 37.5027 4.91916 -59.3433
rradius 133.573
rwrist -6.80081
rhand 16.3342 10.2263
rfingers 7.12502
rthumb 41.106 -14.6563
lclavicle -2.06736e-014 -2.22639e-014
lhumerus 20.7672 -19.3598 63.7475
lradius 114.526
lwrist 1.00251
lhand -10.4116 27.3815
lfingers 7.12502
lthumb 15.5873 56.7734
rfemur -23.7708 9.13594 19.9436
rtibia 39.9013
rfoot -11.8157 -10.9432
rtoes -13.0544
lfemur -24.9724 -8.38683 -10.2965
ltibia 40.5658
lfoot -11.646 5.11829
ltoes -16.8291
1995
root 0.117609 15.4333 -2.5029 -0.280875 0.321709 -3.8479
lowerback 27.9908 0.58945 -5.38241
upperback 10.5339 -0.953892 -4.99766
thorax -3.64585 -0.478424 -2.12122
lowerneck -5.18317 -10.8166 -19.3338
upperneck 3.90658 -13.3159 7.12931
head 3.74299 -6.68331 4.34905
rclavicle -3.33958e-014 1.43125e-014
rhumerus 38.1438 4.98509 -59.4443
rradius 133.478
rwrist -6.12073
rhand 16.1034 11.3597
rfingers 7.12502
rthumb 40.8892 -13.5918
lclavicle -3.33958e-014 1.43125e-014
lhumerus 20.7419 -19.2856 63.6977
lradius 114.466
lwrist 1.06691
lhand -10.4559 27.4254
lfingers 7.12502
lthumb 15.5446 56.8206
rfemur -23.8229 9.05013 19.8243
rtibia 39.9689
rfoot -11.8065 -10.9002
rtoes -13.0523
lfemur -25.0224 -8.42351 -10.413
ltibia 40.6165
lfoot -11.6422 5.08279
ltoes -16.4228
1996
root 0.110728 15.4315 -2.50715 -0.288749 0.277938 -3.8529
lowerback 28.0201 0.6243 -5.43246
upperback 10.4887 -0.932238 -5.04608
thorax -3.70945 -0.466762 -2.1532
lowerneck -4.97879 -10.8948 -19.1651
upperneck 4.06515 -13.4599 6.92439
head 3.75205 -6.76589 4.25488
rclavicle 0 2.22639e-014
rhumerus 38.5822 5.16855 -59.4071
rradius 133.557
rwrist -6.25248
rhand 15.8476 11.6015
rfingers 7.12502
rthumb 40.6489 -13.4255
lclavicle 0 2.22639e-014
lhumerus 20.6587 -19.3575 63.7064
lradius 114.374
lwrist 1.06139
lhand -10.3559 27.5398
lfingers 7.12502
lthumb 15.6409 56.9275
rfemur -23.8703 9.0606 19.8523
rtibia 40.0301
rfoot -11.8226 -10.8515
rtoes -12.7263
lfemur -25.0368 -8.40748 -10.3732
ltibia 40.652
lfoot -11.6728 5.11119
ltoes -16.3644
1997
root 0.104627 15.4302 -2.51145 -0.322563 0.210537 -3.98655
lowerback 28.0349 0.672296 -5.31304
upperback 10.4487 -0.849009 -5.08643
thorax -3.76454 -0.422307 -2.29145
lowerneck -4.63041 -10.9616 -18.9341
upperneck 4.18431 -13.622 6.73589
head 3.72499 -6.85737 4.16474
rclavicle -6.36111e-015 3.81667e-014
rhumerus 38.9035 5.29077 -59.2907
rradius 133.787
rwrist -7.48721
rhand 15.8632 11.3675
rfingers 7.12502
rthumb 40.6635 -13.6549
lclavicle -6.36111e-015 3.81667e-014
lhumerus 20.6524 -19.5454 63.6737
lradius 114.286
lwrist 1.08276
lhand -10.2692 27.5724
lfingers 7.12502
lthumb 15.7244 56.9536
rfemur -23.8794 9.09263 20.0336
rtibia 40.0691
rfoot -11.8143 -10.8182
rtoes -12.8315
lfemur -25.0204 -8.34883 -10.2043
ltibia 40.7031
lfoot -11.7049 5.147
ltoes -16.8676
1998
root 0.0986561 15.426 -2.51795 -0.376884 0.1448 -3.98736
lowerback 28.1237 0.733448 -5.35625
upperback 10.4283 -0.795602 -5.12884
thorax -3.82797 -0.39537 -2.33124
lowerneck -4.51606 -11.0327 -18.8446
upperneck 4.40695 -13.7366 6.60299
head 3.77419 -6.92465 4.10053
rclavicle 2.22639e-014 -3.97569e-014
rhumerus 39.2655 5.46151 -59.0313
rradius 134.09
rwrist -9.41285
rhand 16.4476 11.2148
rfingers 7.12502
rthumb 41.2125 -13.6337
lclavicle 2.22639e-014 -3.97569e-014
lhumerus 20.6701 -19.6428 63.6868
lradius 114.227
lwrist 1.10918
lhand -10.1294 27.704
lfingers 7.12502
lthumb 15.859 57.0745
rfemur -23.8816 9.12639 20.0704
rtibia 40.0936
rfoot -11.7315 -10.7976
rtoes -13.0321
lfemur -24.9924 -8.32903 -10.1742
ltibia 40.7602
lfoot -11.7368 5.163
ltoes -17.1871
1999
root 0.093284 15.4223 -2.52247 -0.405457 0.0916038 -4.01724
lowerback 28.1802 0.778556 -5.39519
upperback 10.4112 -0.756958 -5.1504
thorax -3.87259 -0.376325 -2.34557
lowerneck -4.53549 -11.0888 -18.8239
upperneck 4.71153 -13.8052 6.53395
head 3.87367 -6.96875 4.06028
rclavicle -3.33958e-014 -3.81667e-014
rhumerus 39.5466 5.93574 -58.4899
rradius 134.316
rwrist -10.873
rhand 17.2474 11.379
rfingers 7.12502
rthumb 41.9628 -13.2235
lclavicle -3.33958e-014 -3.81667e-014
lhumerus 20.6576 -19.692 63.7646
lradius 114.082
lwrist 1.15795
lhand -10.147 27.6353
lfingers 7.12502
lthumb 15.842 57.0072
rfemur -23.9048 9.15111 20.1299
rtibia 40.1379
rfoot -11.6951 -10.7703
rtoes -12.9685
lfemur -24.9814 -8.27938 -10.1098
ltibia 40.7899
lfoot -11.7815 5.09463
ltoes -17.4178
2000
root 0.0881412 15.4215 -2.52708 -0.419974 0.0602486 -4.11212
lowerback 28.2613 0.832576 -5.33524
upperback 10.3636 -0.685655 -5.16749
thorax -3.965 -0.338683 -2.42198
lowerneck -4.39264 -11.1236 -18.7226
upperneck 4.90327 -13.8856 6.49763
head 3.91078 -7.01599 4.02997
rclavicle 2.22639e-014 3.81667e-014
rhumerus 39.6416 6.6164 -57.6441
rradius 134.59
rwrist -11.4992
rhand 17.6375 11.2483
rfingers 7.12502
rthumb 42.3282 -13.2308
lclavicle 2.22639e-014 3.81667e-014
lhumerus 20.6519 -19.8398 63.872
lradius 113.914
lwrist 1.20868
lhand -10.2173 27.4605
lfingers 7.12502
lthumb 15.7743 56.8377
rfemur -23.9328 9.19872 20.2557
rtibia 40.2023
rfoot -11.7481 -10.7768
rtoes -12.9368
lfemur -24.9845 -8.24155 -9.98028
ltibia 40.788
lfoot -11.7653 5.06129
ltoes -17.7245
2001
root 0.0839672 15.4219 -2.53127 -0.403887 0.0567194 -3.94959
lowerback 28.2907 0.898108 -5.53224
upperback 10.337 -0.662992 -5.23784
thorax -4.00452 -0.328835 -2.39544
lowerneck -4.30336 -11.116 -18.6986
upperneck 5.04054 -13.8936 6.47662
head 3.93708 -7.02574 4.02082
rclavicle 3.49861e-014 4.92986e-014
rhumerus 39.7121 7.40087 -56.5843
rradius 134.916
rwrist -11.4884
rhand 17.392 10.1924
rfingers 7.12502
rthumb 42.0983 -14.3646
lclavicle 3.49861e-014 4.92986e-014
lhumerus 20.6529 -19.9413 63.9796
lradius 113.772
lwrist 1.17774
lhand -10.2474 27.4498
lfingers 7.12502
lthumb 15.7454 56.8293
rfemur -24.0105 9.13851 20.0861
rtibia 40.2713
rfoot -11.8018 -10.6976
rtoes -12.7464
lfemur -24.9921 -8.25478 -10.1487
ltibia 40.7503
lfoot -11.6663 5.15972
ltoes -17.8867
2002
root 0.0789528 15.4215 -2.53424 -0.358573 0.0619836 -3.72434
lowerback 28.2721 0.97372 -5.7772
upperback 10.2898 -0.637249 -5.30924
thorax -4.04364 -0.318018 -2.34326
lowerneck -4.26043 -11.0584 -18.8145
upperneck 5.26124 -13.8164 6.46853
head 3.99692 -6.99713 4.03858
rclavicle 1.90833e-014 1.90833e-014
rhumerus 39.3824 8.23871 -55.6257
rradius 134.869
rwrist -10.0811
rhand 16.3937 9.99368
rfingers 7.12502
rthumb 41.1619 -14.871
lclavicle 1.90833e-014 1.90833e-014
lhumerus 20.585 -20.0436 64.1842
lradius 113.7
lwrist 1.09968
lhand -10.189 27.5808
lfingers 7.12502
lthumb 15.8016 56.9559
rfemur -24.1146 9.08455 19.8473
rtibia 40.3202
rfoot -11.785 -10.6579
rtoes -12.8361
lfemur -25.0165 -8.28795 -10.3756
ltibia 40.6918
lfoot -11.5837 5.23873
ltoes -17.7599
2003
root 0.072014 15.4205 -2.53569 -0.323478 0.0637596 -3.68999
lowerback 28.2417 1.0495 -5.82743
upperback 10.2469 -0.556542 -5.33454
thorax -4.07616 -0.278239 -2.3676
lowerneck -4.20526 -10.9785 -18.9984
upperneck 5.5265 -13.7098 6.49629
head 4.0723 -6.95597 4.07922
rclavicle 1.74931e-014 9.54166e-015
rhumerus 38.7921 8.73896 -55.0945
rradius 134.544
rwrist -8.06017
rhand 15.7122 10.8248
rfingers 7.12502
rthumb 40.5216 -14.2417
lclavicle 1.74931e-014 9.54166e-015
lhumerus 20.5796 -20.1897 64.3674
lradius 113.676
lwrist 1.03088
lhand -10.171 27.6605
lfingers 7.12502
lthumb 15.819 57.0342
rfemur -24.1794 9.08918 19.8318
rtibia 40.3529
rfoot -11.78 -10.6753
rtoes -12.8096
lfemur -25.0227 -8.28902 -10.3771
ltibia 40.6265
lfoot -11.6021 5.2048
ltoes -17.5464
2004
root 0.0634843 15.4222 -2.53624 -0.345608 0.0676945 -3.69097
lowerback 28.2158 1.11106 -5.8919
upperback 10.2961 -0.491686 -5.37628
thorax -4.00712 -0.24833 -2.39664
lowerneck -4.40268 -10.8914 -19.0121
upperneck 5.81683 -13.5535 6.46817
head 4.17407 -6.88567 4.07091
rclavicle 1.59028e-014 -3.49861e-014
rhumerus 38.319 8.58855 -55.1201
rradius 134.432
rwrist -7.54118
rhand 17.2473 10.9106
rfingers 7.12502
rthumb 41.9627 -13.6919
lclavicle 1.59028e-014 -3.49861e-014
lhumerus 20.7264 -20.2098 64.4065
lradius 113.581
lwrist 1.0026
lhand -10.2106 27.5485
lfingers 7.12502
lthumb 15.7808 56.9252
rfemur -24.1456 9.13804 19.8705
rtibia 40.3587
rfoot -11.8081 -10.7287
rtoes -12.5605
lfemur -24.9535 -8.26034 -10.341
ltibia 40.555
lfoot -11.6273 5.14413
ltoes -17.3695
